<svg width="25" height="25" viewBox="0 0 25 25" fill="none" xmlns="http://www.w3.org/2000/svg">
<g id="facebook">
<path id="Union" fill-rule="evenodd" clip-rule="evenodd" d="M3.5 5.28906C3.5 4.18406 4.395 3.28906 5.5 3.28906H19.5C20.605 3.28906 21.5 4.18406 21.5 5.28906V19.2891C21.5 20.3941 20.605 21.2891 19.5 21.2891H15.914V14.3241H18.279L18.63 11.5991H15.93V9.86406C15.93 9.07606 16.15 8.54206 17.28 8.54206H18.708V6.11206C18.013 6.04106 17.315 6.00506 16.616 6.00706C14.542 6.00706 13.121 7.27406 13.121 9.59806V11.6031H10.778V14.3281H13.121V21.2891H5.5C4.395 21.2891 3.5 20.3941 3.5 19.2891V5.28906Z" fill="#251F24"/>
</g>
</svg>
