<svg width="25" height="25" viewBox="0 0 25 25" fill="none" xmlns="http://www.w3.org/2000/svg">
<g id="instagram ">
<path id="Union" fill-rule="evenodd" clip-rule="evenodd" d="M3.5 8.28906C3.5 5.52806 5.739 3.28906 8.5 3.28906H16.5C19.261 3.28906 21.5 5.52806 21.5 8.28906V16.2891C21.5 19.0501 19.261 21.2891 16.5 21.2891H8.5C5.739 21.2891 3.5 19.0501 3.5 16.2891V8.28906ZM19.5 6.28906C19.5 5.73706 19.052 5.28906 18.5 5.28906C17.948 5.28906 17.5 5.73706 17.5 6.28906C17.5 6.84106 17.948 7.28906 18.5 7.28906C19.052 7.28906 19.5 6.84106 19.5 6.28906ZM17.5 12.2891C17.5 9.52806 15.261 7.28906 12.5 7.28906C9.739 7.28906 7.5 9.52806 7.5 12.2891C7.5 15.0501 9.739 17.2891 12.5 17.2891C15.261 17.2891 17.5 15.0501 17.5 12.2891ZM10.3787 10.1677C10.9413 9.60513 11.7044 9.28906 12.5 9.28906C13.2956 9.28906 14.0587 9.60513 14.6213 10.1677C15.1839 10.7304 15.5 11.4934 15.5 12.2891C15.5 13.0847 15.1839 13.8478 14.6213 14.4104C14.0587 14.973 13.2956 15.2891 12.5 15.2891C11.7044 15.2891 10.9413 14.973 10.3787 14.4104C9.81607 13.8478 9.5 13.0847 9.5 12.2891C9.5 11.4934 9.81607 10.7304 10.3787 10.1677Z" fill="#251F24"/>
</g>
</svg>
