<svg width="25" height="25" viewBox="0 0 25 25" fill="none" xmlns="http://www.w3.org/2000/svg">
<g id="twitter">
<path id="Union" fill-rule="evenodd" clip-rule="evenodd" d="M3.5 7.28906C3.5 5.08006 5.291 3.28906 7.5 3.28906H17.5C19.709 3.28906 21.5 5.08006 21.5 7.28906V17.2891C21.5 19.4981 19.709 21.2891 17.5 21.2891H7.5C5.291 21.2891 3.5 19.4981 3.5 17.2891V7.28906ZM10.521 17.1751C15.064 17.1751 17.55 13.4031 17.55 10.1461V9.80306C17.979 9.46006 18.407 9.03206 18.752 8.51606C18.238 8.77406 17.809 8.85906 17.295 8.94506C17.809 8.60306 18.238 8.17406 18.409 7.57406C17.98 7.83106 17.466 8.08806 16.866 8.17406C16.437 7.66006 15.752 7.40306 15.066 7.40306C13.694 7.40306 12.58 8.51806 12.58 9.88906C12.58 10.0306 12.6061 10.1464 12.6295 10.2504C12.6486 10.3352 12.666 10.4122 12.666 10.4891C10.609 10.4041 8.809 9.37506 7.609 7.91806C7.352 8.26106 7.266 8.68906 7.266 9.11806C7.266 9.97506 7.694 10.6611 8.38 11.2611C7.952 11.1751 7.609 11.0891 7.266 10.9181C7.266 12.1181 8.123 13.0611 9.237 13.3181C8.98 13.4041 8.808 13.4041 8.55101 13.4041H8.551C8.51532 13.4041 8.46483 13.3893 8.40575 13.3719C8.32244 13.3475 8.22205 13.3181 8.122 13.3181C8.465 14.2611 9.322 15.0321 10.436 15.0321C9.579 15.6321 8.464 16.0611 7.35 16.0611H6.75C7.864 16.7461 9.15 17.1751 10.521 17.1751Z" fill="#251F24"/>
</g>
</svg>
